<svg width="31" height="31" viewBox="0 0 31 31" fill="none" xmlns="http://www.w3.org/2000/svg">
<mask id="path-1-inside-1_46_431" fill="white">
<path d="M13.3687 0.123997C10.3927 0.464996 7.44775 1.736 5.13825 3.66575C3.007 5.46375 1.37175 7.99025 0.58125 10.726C-0.0929996 13.0897 -0.17825 16.027 0.3565 18.4372C0.96875 21.1807 2.27075 23.56 4.247 25.5672C4.65 25.978 5.0375 26.3965 5.10725 26.505C5.208 26.6522 5.24675 27.0397 5.30875 28.4502L5.38625 30.2017L5.611 30.4962C5.859 30.8217 6.2155 31 6.6185 31C6.789 31 7.502 30.7287 8.57925 30.256C9.50925 29.8452 10.3772 29.4965 10.509 29.4732C10.6485 29.45 11.1367 29.5197 11.594 29.6282C13.0897 29.977 13.578 30.0312 15.5387 30.0312C17.1042 30.0235 17.546 30.0002 18.3287 29.8607C24.9085 28.675 29.605 24.118 30.7752 17.794C30.9845 16.6625 31.0542 14.6165 30.9302 13.4152C30.3257 7.77325 26.8692 3.21625 21.5915 1.12375C19.1657 0.154997 16.2052 -0.201504 13.3687 0.123997ZM26.6367 8.4165C26.5902 9.021 26.195 9.89675 25.792 10.2842C25.1875 10.8655 24.2575 11.2452 23.2112 11.3382L22.9012 11.3692L22.847 12.0202C22.6532 14.1747 21.8395 16.0115 20.4057 17.515C19.778 18.1815 18.8402 18.8867 18.507 18.9487C18.4217 18.9642 18.3132 19.0107 18.259 19.0495C18.2125 19.0882 17.98 19.1812 17.7397 19.251L17.3057 19.375L17.205 19.8167C17.1507 20.0647 17.0422 20.4677 16.9647 20.708C16.8872 20.956 16.802 21.2737 16.771 21.4287L16.7245 21.7H17.1042C17.7552 21.7 17.9567 21.9945 17.7397 22.6145C17.6235 22.9555 17.298 23.0407 16.306 23.002C15.6007 22.9787 15.4767 22.9555 15.3295 22.8005L15.1512 22.63L15.4922 21.2892C15.686 20.5607 15.8487 19.902 15.872 19.8322C15.8952 19.716 15.841 19.7082 15.407 19.747C14.2677 19.8632 12.9347 19.8012 11.78 19.5765C11.4467 19.5145 10.1215 19.1425 9.95875 19.0727C9.5635 18.8867 9.47825 18.8945 9.424 19.1192C9.40075 19.2355 9.26125 19.809 9.114 20.3825C8.959 20.956 8.835 21.4907 8.835 21.5605C8.835 21.6767 8.90475 21.7 9.207 21.7C9.7185 21.7 9.88125 21.8705 9.81925 22.3665C9.75725 22.9322 9.672 22.971 8.59475 23.002C7.843 23.0252 7.626 23.0097 7.47875 22.909C7.1455 22.692 7.161 22.6377 8.1375 18.9487C8.3545 18.135 8.6645 16.9182 8.835 16.2362C9.0055 15.5542 9.18375 14.911 9.2225 14.8025C9.393 14.384 9.38525 14.198 9.18375 13.981C8.96675 13.7485 8.34675 12.71 8.215 12.3612C8.0755 11.9892 7.89725 11.0825 7.8585 10.5012C7.81975 9.97425 7.967 8.78075 8.122 8.37C8.184 8.1995 8.1995 8.22275 8.25375 8.6025C8.4165 9.81925 8.79625 10.726 9.52475 11.6482C10.0207 12.276 10.9197 13.0045 11.5087 13.2525C11.718 13.3455 11.997 13.4695 12.1287 13.5237C13.0355 13.9422 15.066 13.9732 15.965 13.5857C16.1122 13.5237 16.275 13.4617 16.3292 13.454C16.5075 13.423 17.4917 12.8495 17.7552 12.6247C17.9025 12.5007 18.0342 12.4 18.0575 12.4C18.0807 12.4 18.3752 12.5085 18.7162 12.6325C19.0572 12.7565 19.437 12.865 19.5532 12.865C19.809 12.865 20.1345 12.71 20.3282 12.493C20.5375 12.2682 20.9017 11.4545 21.0412 10.9275C21.2505 10.1137 21.1652 10.0905 20.8087 10.881C20.429 11.7335 20.1267 12.214 19.8942 12.338C19.6695 12.4542 19.1115 12.3535 18.4915 12.0745C17.577 11.6715 17.484 11.4467 17.9722 10.7647C18.3675 10.2067 18.5767 9.78825 18.8635 8.95125C19.2432 7.85075 18.972 7.9205 23.2035 7.91275L26.6832 7.905L26.6367 8.4165ZM19.6927 18.8247C19.6462 18.9022 19.4757 19.5222 19.313 20.1965C19.1425 20.8785 18.9952 21.483 18.9797 21.545C18.9565 21.6225 19.0417 21.669 19.2897 21.7C19.7392 21.7697 19.9407 22.0022 19.871 22.3897C19.84 22.5447 19.747 22.7462 19.6617 22.8392C19.5222 23.002 19.4292 23.0175 18.7937 23.0175C18.4062 23.0175 18.0652 22.9942 18.042 22.971C18.011 22.9477 18.042 22.8392 18.104 22.723C18.29 22.3587 18.2435 21.9015 17.9877 21.6302C17.732 21.359 17.7165 21.5372 18.1272 20.1112C18.2125 19.809 18.29 19.5455 18.29 19.5145C18.29 19.4912 18.5225 19.3595 18.8015 19.2277C19.0805 19.096 19.3982 18.9177 19.5067 18.8325C19.7547 18.6387 19.7857 18.6387 19.6927 18.8247ZM10.8887 19.7547C11.2685 19.8555 11.4235 19.9252 11.4002 20.0027C11.191 20.7777 11.005 21.5295 11.005 21.5992C11.005 21.6612 11.1135 21.7 11.3072 21.7C11.5475 21.7 11.6482 21.7465 11.78 21.9092C11.935 22.1107 11.9427 22.2502 11.811 22.723C11.7567 22.9167 11.3615 23.0175 10.6717 23.0175C10.0672 23.0175 10.0595 23.0175 10.1137 22.8392C10.1447 22.7462 10.1835 22.4905 10.2067 22.2657C10.2455 21.8937 10.23 21.8472 10.0052 21.6225C9.81925 21.4365 9.7805 21.3512 9.8425 21.2427C9.88125 21.1652 9.98975 20.77 10.0827 20.3592C10.1757 19.9407 10.2765 19.6075 10.2997 19.6075C10.323 19.6075 10.5942 19.6772 10.8887 19.7547Z"/>
</mask>
<path d="M13.3687 0.123997C10.3927 0.464996 7.44775 1.736 5.13825 3.66575C3.007 5.46375 1.37175 7.99025 0.58125 10.726C-0.0929996 13.0897 -0.17825 16.027 0.3565 18.4372C0.96875 21.1807 2.27075 23.56 4.247 25.5672C4.65 25.978 5.0375 26.3965 5.10725 26.505C5.208 26.6522 5.24675 27.0397 5.30875 28.4502L5.38625 30.2017L5.611 30.4962C5.859 30.8217 6.2155 31 6.6185 31C6.789 31 7.502 30.7287 8.57925 30.256C9.50925 29.8452 10.3772 29.4965 10.509 29.4732C10.6485 29.45 11.1367 29.5197 11.594 29.6282C13.0897 29.977 13.578 30.0312 15.5387 30.0312C17.1042 30.0235 17.546 30.0002 18.3287 29.8607C24.9085 28.675 29.605 24.118 30.7752 17.794C30.9845 16.6625 31.0542 14.6165 30.9302 13.4152C30.3257 7.77325 26.8692 3.21625 21.5915 1.12375C19.1657 0.154997 16.2052 -0.201504 13.3687 0.123997ZM26.6367 8.4165C26.5902 9.021 26.195 9.89675 25.792 10.2842C25.1875 10.8655 24.2575 11.2452 23.2112 11.3382L22.9012 11.3692L22.847 12.0202C22.6532 14.1747 21.8395 16.0115 20.4057 17.515C19.778 18.1815 18.8402 18.8867 18.507 18.9487C18.4217 18.9642 18.3132 19.0107 18.259 19.0495C18.2125 19.0882 17.98 19.1812 17.7397 19.251L17.3057 19.375L17.205 19.8167C17.1507 20.0647 17.0422 20.4677 16.9647 20.708C16.8872 20.956 16.802 21.2737 16.771 21.4287L16.7245 21.7H17.1042C17.7552 21.7 17.9567 21.9945 17.7397 22.6145C17.6235 22.9555 17.298 23.0407 16.306 23.002C15.6007 22.9787 15.4767 22.9555 15.3295 22.8005L15.1512 22.63L15.4922 21.2892C15.686 20.5607 15.8487 19.902 15.872 19.8322C15.8952 19.716 15.841 19.7082 15.407 19.747C14.2677 19.8632 12.9347 19.8012 11.78 19.5765C11.4467 19.5145 10.1215 19.1425 9.95875 19.0727C9.5635 18.8867 9.47825 18.8945 9.424 19.1192C9.40075 19.2355 9.26125 19.809 9.114 20.3825C8.959 20.956 8.835 21.4907 8.835 21.5605C8.835 21.6767 8.90475 21.7 9.207 21.7C9.7185 21.7 9.88125 21.8705 9.81925 22.3665C9.75725 22.9322 9.672 22.971 8.59475 23.002C7.843 23.0252 7.626 23.0097 7.47875 22.909C7.1455 22.692 7.161 22.6377 8.1375 18.9487C8.3545 18.135 8.6645 16.9182 8.835 16.2362C9.0055 15.5542 9.18375 14.911 9.2225 14.8025C9.393 14.384 9.38525 14.198 9.18375 13.981C8.96675 13.7485 8.34675 12.71 8.215 12.3612C8.0755 11.9892 7.89725 11.0825 7.8585 10.5012C7.81975 9.97425 7.967 8.78075 8.122 8.37C8.184 8.1995 8.1995 8.22275 8.25375 8.6025C8.4165 9.81925 8.79625 10.726 9.52475 11.6482C10.0207 12.276 10.9197 13.0045 11.5087 13.2525C11.718 13.3455 11.997 13.4695 12.1287 13.5237C13.0355 13.9422 15.066 13.9732 15.965 13.5857C16.1122 13.5237 16.275 13.4617 16.3292 13.454C16.5075 13.423 17.4917 12.8495 17.7552 12.6247C17.9025 12.5007 18.0342 12.4 18.0575 12.4C18.0807 12.4 18.3752 12.5085 18.7162 12.6325C19.0572 12.7565 19.437 12.865 19.5532 12.865C19.809 12.865 20.1345 12.71 20.3282 12.493C20.5375 12.2682 20.9017 11.4545 21.0412 10.9275C21.2505 10.1137 21.1652 10.0905 20.8087 10.881C20.429 11.7335 20.1267 12.214 19.8942 12.338C19.6695 12.4542 19.1115 12.3535 18.4915 12.0745C17.577 11.6715 17.484 11.4467 17.9722 10.7647C18.3675 10.2067 18.5767 9.78825 18.8635 8.95125C19.2432 7.85075 18.972 7.9205 23.2035 7.91275L26.6832 7.905L26.6367 8.4165ZM19.6927 18.8247C19.6462 18.9022 19.4757 19.5222 19.313 20.1965C19.1425 20.8785 18.9952 21.483 18.9797 21.545C18.9565 21.6225 19.0417 21.669 19.2897 21.7C19.7392 21.7697 19.9407 22.0022 19.871 22.3897C19.84 22.5447 19.747 22.7462 19.6617 22.8392C19.5222 23.002 19.4292 23.0175 18.7937 23.0175C18.4062 23.0175 18.0652 22.9942 18.042 22.971C18.011 22.9477 18.042 22.8392 18.104 22.723C18.29 22.3587 18.2435 21.9015 17.9877 21.6302C17.732 21.359 17.7165 21.5372 18.1272 20.1112C18.2125 19.809 18.29 19.5455 18.29 19.5145C18.29 19.4912 18.5225 19.3595 18.8015 19.2277C19.0805 19.096 19.3982 18.9177 19.5067 18.8325C19.7547 18.6387 19.7857 18.6387 19.6927 18.8247ZM10.8887 19.7547C11.2685 19.8555 11.4235 19.9252 11.4002 20.0027C11.191 20.7777 11.005 21.5295 11.005 21.5992C11.005 21.6612 11.1135 21.7 11.3072 21.7C11.5475 21.7 11.6482 21.7465 11.78 21.9092C11.935 22.1107 11.9427 22.2502 11.811 22.723C11.7567 22.9167 11.3615 23.0175 10.6717 23.0175C10.0672 23.0175 10.0595 23.0175 10.1137 22.8392C10.1447 22.7462 10.1835 22.4905 10.2067 22.2657C10.2455 21.8937 10.23 21.8472 10.0052 21.6225C9.81925 21.4365 9.7805 21.3512 9.8425 21.2427C9.88125 21.1652 9.98975 20.77 10.0827 20.3592C10.1757 19.9407 10.2765 19.6075 10.2997 19.6075C10.323 19.6075 10.5942 19.6772 10.8887 19.7547Z" fill="white" fill-opacity="0.5" stroke="#474B7C" stroke-width="2" mask="url(#path-1-inside-1_46_431)"/>
<path d="M22.1883 8.75751C21.9325 8.85826 21.8395 9.08301 21.9403 9.36976C22.041 9.64876 22.3123 9.74951 22.599 9.61776C22.8238 9.51701 22.8393 9.40851 22.63 9.35426C22.5448 9.33101 22.475 9.25351 22.475 9.18376C22.475 9.11401 22.5448 9.03651 22.63 9.01326C22.8083 8.96676 22.8315 8.87376 22.692 8.78076C22.5448 8.69551 22.382 8.68776 22.1883 8.75751Z" fill="url(#paint0_linear_46_431)"/>
<defs>
<linearGradient id="paint0_linear_46_431" x1="22.3414" y1="9.67505" x2="22.3414" y2="8.71043" gradientUnits="userSpaceOnUse">
<stop stop-color="#DF1D1D"/>
<stop offset="0.9999" stop-color="#3FC64C"/>
<stop offset="1" stop-color="#F83F3F" stop-opacity="0.52"/>
</linearGradient>
</defs>
</svg>
