<svg width="12" height="16" viewBox="0 0 12 16" fill="none" xmlns="http://www.w3.org/2000/svg">
<g clip-path="url(#clip0_388_2)">
<path d="M3.7 11.55C3.60599 11.6389 3.53224 11.747 3.48379 11.8669C3.43533 11.9869 3.41331 12.1159 3.41921 12.2451C3.42512 12.3743 3.45882 12.5008 3.51801 12.6158C3.57721 12.7309 3.66051 12.8318 3.76223 12.9117C3.86396 12.9916 3.98173 13.0487 4.1075 13.079C4.23327 13.1093 4.3641 13.1121 4.49106 13.0873C4.61803 13.0624 4.73815 13.0105 4.84323 12.9351C4.94832 12.8596 5.0359 12.7624 5.1 12.65L8.31 8.55C8.43164 8.39245 8.49761 8.19903 8.49761 8C8.49761 7.80096 8.43164 7.60754 8.31 7.45L5.11 3.35C5.04108 3.248 4.95197 3.16123 4.84817 3.09504C4.74437 3.02886 4.6281 2.98467 4.50655 2.96522C4.38499 2.94576 4.26074 2.95144 4.14147 2.98192C4.0222 3.0124 3.91046 3.06702 3.81314 3.14241C3.71582 3.21779 3.635 3.31234 3.57568 3.42021C3.51636 3.52808 3.4798 3.64697 3.46826 3.76952C3.45672 3.89208 3.47044 4.01571 3.50858 4.13275C3.54672 4.2498 3.60847 4.35777 3.69 4.45L6.46 8L3.7 11.55Z" fill="black"/>
</g>
<defs>
<clipPath id="clip0_388_2">
<rect width="16" height="12" fill="white" transform="translate(0 16) rotate(-90)"/>
</clipPath>
</defs>
</svg>
