<svg width="187" height="74" viewBox="0 0 187 74" fill="none" xmlns="http://www.w3.org/2000/svg">
<path d="M88.26 38.2C88.26 36.9 88.48 35.63 88.92 34.39C89.38 33.13 90.04 31.99 90.9 30.97C91.76 29.93 92.82 29.11 94.08 28.51C95.34 27.89 96.77 27.58 98.37 27.58C100.27 27.58 101.89 28.02 103.23 28.9C104.59 29.76 105.59 30.87 106.23 32.23L104.58 33.25C104.12 32.31 103.54 31.57 102.84 31.03C102.14 30.47 101.39 30.07 100.59 29.83C99.81 29.59 99.03 29.47 98.25 29.47C96.97 29.47 95.84 29.73 94.86 30.25C93.88 30.75 93.05 31.43 92.37 32.29C91.71 33.13 91.21 34.08 90.87 35.14C90.53 36.18 90.36 37.24 90.36 38.32C90.36 39.5 90.56 40.63 90.96 41.71C91.36 42.79 91.92 43.75 92.64 44.59C93.36 45.41 94.2 46.07 95.16 46.57C96.14 47.05 97.2 47.29 98.34 47.29C99.14 47.29 99.96 47.15 100.8 46.87C101.64 46.59 102.42 46.16 103.14 45.58C103.88 45 104.47 44.25 104.91 43.33L106.65 44.23C106.21 45.29 105.53 46.19 104.61 46.93C103.69 47.67 102.66 48.23 101.52 48.61C100.4 48.99 99.3 49.18 98.22 49.18C96.76 49.18 95.42 48.87 94.2 48.25C92.98 47.61 91.92 46.77 91.02 45.73C90.14 44.67 89.46 43.49 88.98 42.19C88.5 40.87 88.26 39.54 88.26 38.2ZM122.956 49H120.916V40.27C120.916 38.51 120.606 37.19 119.986 36.31C119.366 35.41 118.476 34.96 117.316 34.96C116.556 34.96 115.796 35.16 115.036 35.56C114.296 35.94 113.636 36.47 113.056 37.15C112.496 37.81 112.096 38.57 111.856 39.43V49H109.816V27.1H111.856V36.91C112.476 35.75 113.336 34.83 114.436 34.15C115.556 33.45 116.746 33.1 118.006 33.1C118.906 33.1 119.666 33.26 120.286 33.58C120.926 33.9 121.436 34.37 121.816 34.99C122.216 35.59 122.506 36.3 122.686 37.12C122.866 37.92 122.956 38.83 122.956 39.85V49ZM126.047 44.5C126.047 43.52 126.327 42.68 126.887 41.98C127.447 41.26 128.217 40.71 129.197 40.33C130.197 39.93 131.347 39.73 132.647 39.73C133.407 39.73 134.197 39.79 135.017 39.91C135.837 40.03 136.567 40.21 137.207 40.45V39.13C137.207 37.81 136.817 36.76 136.037 35.98C135.257 35.2 134.177 34.81 132.797 34.81C131.957 34.81 131.127 34.97 130.307 35.29C129.507 35.59 128.667 36.04 127.787 36.64L127.007 35.2C128.027 34.5 129.027 33.98 130.007 33.64C130.987 33.28 131.987 33.1 133.007 33.1C134.927 33.1 136.447 33.65 137.567 34.75C138.687 35.85 139.247 37.37 139.247 39.31V46.54C139.247 46.82 139.307 47.03 139.427 47.17C139.547 47.29 139.737 47.36 139.997 47.38V49C139.777 49.02 139.587 49.04 139.427 49.06C139.267 49.08 139.147 49.08 139.067 49.06C138.567 49.04 138.187 48.88 137.927 48.58C137.667 48.28 137.527 47.96 137.507 47.62L137.477 46.48C136.777 47.38 135.867 48.08 134.747 48.58C133.627 49.06 132.487 49.3 131.327 49.3C130.327 49.3 129.417 49.09 128.597 48.67C127.797 48.23 127.167 47.65 126.707 46.93C126.267 46.19 126.047 45.38 126.047 44.5ZM136.517 45.7C136.737 45.42 136.907 45.15 137.027 44.89C137.147 44.63 137.207 44.4 137.207 44.2V41.92C136.527 41.66 135.817 41.46 135.077 41.32C134.357 41.18 133.627 41.11 132.887 41.11C131.427 41.11 130.247 41.4 129.347 41.98C128.447 42.56 127.997 43.35 127.997 44.35C127.997 44.93 128.147 45.48 128.447 46C128.747 46.5 129.187 46.92 129.767 47.26C130.347 47.58 131.027 47.74 131.807 47.74C132.787 47.74 133.697 47.55 134.537 47.17C135.397 46.79 136.057 46.3 136.517 45.7Z" fill="#331D0C" fill-opacity="0.7"/>
<path d="M144.074 49V27.7H152.894C153.814 27.7 154.654 27.89 155.414 28.27C156.194 28.65 156.864 29.17 157.424 29.83C157.984 30.47 158.424 31.19 158.744 31.99C159.064 32.77 159.224 33.57 159.224 34.39C159.224 35.55 158.964 36.65 158.444 37.69C157.944 38.71 157.234 39.54 156.314 40.18C155.394 40.82 154.314 41.14 153.074 41.14H146.174V49H144.074ZM146.174 39.28H152.984C153.824 39.28 154.554 39.05 155.174 38.59C155.794 38.13 156.274 37.53 156.614 36.79C156.954 36.05 157.124 35.25 157.124 34.39C157.124 33.51 156.924 32.7 156.524 31.96C156.124 31.22 155.594 30.64 154.934 30.22C154.294 29.78 153.584 29.56 152.804 29.56H146.174V39.28ZM162.316 49V33.37H164.356V49H162.316ZM162.316 30.1V27.1H164.356V30.1H162.316ZM175.63 49.3C174.49 49.3 173.44 49.09 172.48 48.67C171.54 48.23 170.71 47.63 169.99 46.87C169.29 46.11 168.74 45.24 168.34 44.26C167.96 43.28 167.77 42.24 167.77 41.14C167.77 39.66 168.1 38.31 168.76 37.09C169.42 35.87 170.34 34.9 171.52 34.18C172.7 33.46 174.06 33.1 175.6 33.1C177.06 33.1 178.35 33.44 179.47 34.12C180.59 34.78 181.42 35.68 181.96 36.82L179.98 37.45C179.54 36.65 178.92 36.03 178.12 35.59C177.34 35.13 176.47 34.9 175.51 34.9C174.47 34.9 173.52 35.17 172.66 35.71C171.8 36.25 171.11 36.99 170.59 37.93C170.09 38.87 169.84 39.94 169.84 41.14C169.84 42.32 170.1 43.39 170.62 44.35C171.14 45.31 171.83 46.08 172.69 46.66C173.55 47.22 174.5 47.5 175.54 47.5C176.22 47.5 176.87 47.38 177.49 47.14C178.13 46.9 178.68 46.58 179.14 46.18C179.62 45.76 179.94 45.31 180.1 44.83L182.11 45.43C181.83 46.17 181.36 46.84 180.7 47.44C180.06 48.02 179.3 48.48 178.42 48.82C177.56 49.14 176.63 49.3 175.63 49.3Z" fill="#636DEA" fill-opacity="0.78"/>
<path d="M31.9125 0.295998C24.8085 1.11 17.7785 4.144 12.2655 8.7505C7.17799 13.0425 3.27449 19.0735 1.38749 25.604C-0.222005 31.2465 -0.425505 38.258 0.850995 44.0115C2.31249 50.5605 5.4205 56.24 10.138 61.0315C11.1 62.012 12.025 63.011 12.1915 63.27C12.432 63.6215 12.5245 64.5465 12.6725 67.9135L12.8575 72.0945L13.394 72.7975C13.986 73.5745 14.837 74 15.799 74C16.206 74 17.908 73.3525 20.4795 72.224C22.6995 71.2435 24.7715 70.411 25.086 70.3555C25.419 70.3 26.5845 70.4665 27.676 70.7255C31.2465 71.558 32.412 71.6875 37.0925 71.6875C40.8295 71.669 41.884 71.6135 43.7525 71.2805C59.459 68.45 70.67 57.572 73.4635 42.476C73.963 39.775 74.1295 34.891 73.8335 32.0235C72.3905 18.5555 64.1395 7.6775 51.541 2.6825C45.7505 0.370003 38.6835 -0.481003 31.9125 0.295998ZM63.5845 20.091C63.4735 21.534 62.53 23.6245 61.568 24.5495C60.125 25.937 57.905 26.8435 55.4075 27.0655L54.6675 27.1395L54.538 28.6935C54.0755 33.8365 52.133 38.221 48.7105 41.81C47.212 43.401 44.9735 45.0845 44.178 45.2325C43.9745 45.2695 43.7155 45.3805 43.586 45.473C43.475 45.5655 42.92 45.7875 42.3465 45.954L41.3105 46.25L41.07 47.3045C40.9405 47.8965 40.6815 48.8585 40.4965 49.432C40.3115 50.024 40.108 50.7825 40.034 51.1525L39.923 51.8H40.8295C42.3835 51.8 42.8645 52.503 42.3465 53.983C42.069 54.797 41.292 55.0005 38.924 54.908C37.2405 54.8525 36.9445 54.797 36.593 54.427L36.1675 54.02L36.9815 50.8195C37.444 49.0805 37.8325 47.508 37.888 47.3415C37.9435 47.064 37.814 47.0455 36.778 47.138C34.0585 47.4155 30.8765 47.2675 28.12 46.731C27.3245 46.583 24.161 45.695 23.7725 45.5285C22.829 45.0845 22.6255 45.103 22.496 45.6395C22.4405 45.917 22.1075 47.286 21.756 48.655C21.386 50.024 21.09 51.3005 21.09 51.467C21.09 51.7445 21.2565 51.8 21.978 51.8C23.199 51.8 23.5875 52.207 23.4395 53.391C23.2915 54.7415 23.088 54.834 20.5165 54.908C18.722 54.9635 18.204 54.9265 17.8525 54.686C17.057 54.168 17.094 54.0385 19.425 45.2325C19.943 43.29 20.683 40.3855 21.09 38.7575C21.497 37.1295 21.9225 35.594 22.015 35.335C22.422 34.336 22.4035 33.892 21.9225 33.374C21.4045 32.819 19.9245 30.34 19.61 29.5075C19.277 28.6195 18.8515 26.455 18.759 25.0675C18.6665 23.8095 19.018 20.9605 19.388 19.98C19.536 19.573 19.573 19.6285 19.7025 20.535C20.091 23.4395 20.9975 25.604 22.7365 27.8055C23.9205 29.304 26.0665 31.043 27.4725 31.635C27.972 31.857 28.638 32.153 28.9525 32.2825C31.117 33.2815 35.964 33.3555 38.11 32.4305C38.4615 32.2825 38.85 32.1345 38.9795 32.116C39.405 32.042 41.7545 30.673 42.3835 30.1365C42.735 29.8405 43.0495 29.6 43.105 29.6C43.1605 29.6 43.8635 29.859 44.6775 30.155C45.4915 30.451 46.398 30.71 46.6755 30.71C47.286 30.71 48.063 30.34 48.5255 29.822C49.025 29.2855 49.8945 27.343 50.2275 26.085C50.727 24.1425 50.5235 24.087 49.6725 25.974C48.766 28.009 48.0445 29.156 47.4895 29.452C46.953 29.7295 45.621 29.489 44.141 28.823C41.958 27.861 41.736 27.3245 42.9015 25.6965C43.845 24.3645 44.3445 23.3655 45.029 21.3675C45.9355 18.7405 45.288 18.907 55.389 18.8885L63.6955 18.87L63.5845 20.091ZM47.0085 44.9365C46.8975 45.1215 46.4905 46.6015 46.102 48.211C45.695 49.839 45.3435 51.282 45.3065 51.43C45.251 51.615 45.4545 51.726 46.0465 51.8C47.1195 51.9665 47.6005 52.5215 47.434 53.4465C47.36 53.8165 47.138 54.2975 46.9345 54.5195C46.6015 54.908 46.3795 54.945 44.8625 54.945C43.9375 54.945 43.1235 54.8895 43.068 54.834C42.994 54.7785 43.068 54.5195 43.216 54.242C43.66 53.3725 43.549 52.281 42.9385 51.6335C42.328 50.986 42.291 51.4115 43.2715 48.0075C43.475 47.286 43.66 46.657 43.66 46.583C43.66 46.5275 44.215 46.213 44.881 45.8985C45.547 45.584 46.3055 45.1585 46.5645 44.955C47.1565 44.4925 47.2305 44.4925 47.0085 44.9365ZM25.9925 47.1565C26.899 47.397 27.269 47.5635 27.2135 47.7485C26.714 49.5985 26.27 51.393 26.27 51.5595C26.27 51.7075 26.529 51.8 26.9915 51.8C27.565 51.8 27.8055 51.911 28.12 52.2995C28.49 52.7805 28.5085 53.1135 28.194 54.242C28.0645 54.7045 27.121 54.945 25.4745 54.945C24.0315 54.945 24.013 54.945 24.1425 54.5195C24.2165 54.2975 24.309 53.687 24.3645 53.1505C24.457 52.2625 24.42 52.1515 23.8835 51.615C23.4395 51.171 23.347 50.9675 23.495 50.7085C23.5875 50.5235 23.8465 49.58 24.0685 48.5995C24.2905 47.6005 24.531 46.805 24.5865 46.805C24.642 46.805 25.2895 46.9715 25.9925 47.1565Z" fill="#636DEA"/>
<path d="M52.9655 20.905C52.355 21.1455 52.133 21.682 52.3735 22.3665C52.614 23.0325 53.2615 23.273 53.946 22.9585C54.4825 22.718 54.5195 22.459 54.02 22.3295C53.8165 22.274 53.65 22.089 53.65 21.9225C53.65 21.756 53.8165 21.571 54.02 21.5155C54.4455 21.4045 54.501 21.1825 54.168 20.9605C53.8165 20.757 53.428 20.7385 52.9655 20.905Z" fill="url(#paint0_linear_9_13)"/>
<defs>
<linearGradient id="paint0_linear_9_13" x1="53.331" y1="23.0953" x2="53.331" y2="20.7926" gradientUnits="userSpaceOnUse">
<stop stop-color="#DF1D1D"/>
<stop offset="0.9999" stop-color="#3FC64C"/>
<stop offset="1" stop-color="#F83F3F" stop-opacity="0.52"/>
</linearGradient>
</defs>
</svg>
