<svg width="12" height="16" viewBox="0 0 12 16" fill="none" xmlns="http://www.w3.org/2000/svg">
<g clip-path="url(#clip0_388_2)">
<path d="M8.3 4.45C8.39401 4.36113 8.46776 4.25303 8.51621 4.13308C8.56467 4.01312 8.58669 3.88413 8.58079 3.75489C8.57488 3.62566 8.54118 3.49921 8.48199 3.38418C8.42279 3.26914 8.33949 3.16822 8.23777 3.08829C8.13604 3.00837 8.01827 2.95131 7.8925 2.92101C7.76673 2.89071 7.6359 2.88789 7.50894 2.91272C7.38197 2.93756 7.26185 2.98948 7.15677 3.06494C7.05168 3.1404 6.9641 3.23763 6.9 3.35L3.69 7.45C3.56836 7.60755 3.50239 7.80097 3.50239 8C3.50239 8.19904 3.56836 8.39246 3.69 8.55L6.89 12.65C6.95892 12.752 7.04803 12.8388 7.15183 12.905C7.25563 12.9711 7.3719 13.0153 7.49345 13.0348C7.615 13.0542 7.73926 13.0486 7.85853 13.0181C7.9778 12.9876 8.08954 12.933 8.18686 12.8576C8.28418 12.7822 8.365 12.6877 8.42432 12.5798C8.48364 12.4719 8.5202 12.353 8.53174 12.2305C8.54328 12.1079 8.52956 11.9843 8.49142 11.8672C8.45328 11.7502 8.39153 11.6422 8.31 11.55L5.54 8L8.3 4.45Z" fill="black"/>
</g>
<defs>
<clipPath id="clip0_388_2">
<rect width="16" height="12" fill="white" transform="translate(12) rotate(90)"/>
</clipPath>
</defs>
</svg>
