<svg width="29" height="29" viewBox="0 0 29 29" fill="none" xmlns="http://www.w3.org/2000/svg">
<path d="M26.1338 0.483337H7.6995C6.119 0.483337 4.83333 1.769 4.83333 3.3495V7.25H2.86617C1.28567 7.25 0 8.53567 0 10.1157V20.3338C0 21.9143 1.28567 23.2 2.86617 23.2H5.8V28.0333C5.8 28.233 5.92277 28.4123 6.10933 28.4843C6.16588 28.506 6.22485 28.5167 6.28333 28.5167C6.41673 28.5167 6.54772 28.4611 6.641 28.3586L11.3303 23.2H21.3005C22.881 23.2 24.1667 21.9143 24.1667 20.3343V16.4333H26.1338C27.7143 16.4333 29 15.1477 29 13.5672V3.3495C29 1.769 27.7143 0.483337 26.1338 0.483337ZM23.2 20.3343C23.2 21.3812 22.3479 22.2333 21.3005 22.2333H11.1167C10.9804 22.2333 10.8503 22.2909 10.759 22.3914L6.76667 26.7834V22.7167C6.76667 22.4499 6.55062 22.2333 6.28333 22.2333H2.86617C1.81878 22.2333 0.966667 21.3812 0.966667 20.3338V10.1157C0.966667 9.06879 1.81878 8.21667 2.86617 8.21667H5.31667H21.3005C22.3479 8.21667 23.2 9.06879 23.2 10.1162V15.95V20.3343ZM28.0333 13.5672C28.0333 14.6146 27.1812 15.4667 26.1338 15.4667H24.1667V10.1162C24.1667 8.53567 22.881 7.25 21.3005 7.25H5.8V3.3495C5.8 2.30212 6.65212 1.45 7.6995 1.45H26.1338C27.1812 1.45 28.0333 2.30212 28.0333 3.3495V13.5672Z" fill="#474B7C"/>
</svg>
