<svg width="272" height="158" viewBox="0 0 272 158" fill="none" xmlns="http://www.w3.org/2000/svg">
<path d="M22.632 1H258.199C262.68 1 264.92 1 266.631 1.87194C268.137 2.63892 269.36 3.86276 270.127 5.36804C270.999 7.07933 270.999 9.31953 270.999 13.7999L271 57.4798L271 113.96V144.66C271 149.141 271 151.381 270.128 153.092C269.361 154.597 268.137 155.821 266.632 156.588C264.921 157.46 262.68 157.46 258.2 157.46H21.928C19.96 157.46 18.976 157.46 18.002 157.365C17.137 157.28 16.278 157.138 15.431 156.942C14.477 156.72 13.545 156.405 11.681 155.775L11.162 155.6C10.667 155.433 10.42 155.349 10.167 155.309C9.94199 155.274 9.714 155.265 9.487 155.281C9.231 155.299 8.97801 155.362 8.47101 155.487L0.5 157.46L1.10599 156.961C4.31299 154.315 5.91601 152.992 7.07001 151.365C8.09101 149.924 8.85001 148.314 9.31201 146.608C9.83301 144.684 9.83301 142.605 9.83301 138.447V110.11L9.832 13.8001V13.7999C9.832 9.31956 9.83201 7.07938 10.704 5.36811C11.471 3.8628 12.695 2.63895 14.2 1.87196C15.912 1 18.152 1 22.632 1Z" stroke="white" stroke-width="1"/>
</svg>
