<svg width="29" height="30" viewBox="0 0 29 30" fill="none" xmlns="http://www.w3.org/2000/svg">
<path d="M23.5964 12.9597H18.6137C18.6563 12.6753 18.6777 12.3879 18.6777 12.1001V6.58987C18.676 5.10786 18.1062 3.68703 17.0932 2.63909C16.0802 1.59115 14.7067 1.00168 13.2741 1H5.40354C3.97093 1.00168 2.59746 1.59115 1.58445 2.63909C0.57144 3.68703 0.00162021 5.10786 0 6.58987V12.1001C0.00162214 13.5821 0.571442 15.0029 1.58445 16.0509C2.59746 17.0988 3.97093 17.6883 5.40354 17.69H10.3876C10.3443 17.9743 10.3225 18.2617 10.3223 18.5495V24.0597C10.3239 25.5417 10.8938 26.9626 11.9068 28.0105C12.9198 29.0584 14.2932 29.6479 15.7258 29.6496H23.5965C25.0291 29.6479 26.4026 29.0584 27.4156 28.0105C28.4286 26.9626 28.9984 25.5417 29 24.0597V18.5495C28.9984 17.0675 28.4286 15.6466 27.4155 14.5987C26.4025 13.5508 25.0291 12.9613 23.5964 12.9597ZM1.16458 12.1001V6.58987C1.16586 5.42727 1.61287 4.31267 2.40755 3.49059C3.20223 2.66851 4.27969 2.20609 5.40354 2.20478H13.2741C14.398 2.20609 15.4754 2.66851 16.2701 3.49059C17.0648 4.31267 17.5118 5.42728 17.513 6.58987V12.1001C17.5118 13.2627 17.0648 14.3773 16.2701 15.1994C15.4754 16.0215 14.398 16.4839 13.2741 16.4852H5.40354C4.27969 16.4839 3.20223 16.0215 2.40755 15.1994C1.61287 14.3773 1.16586 13.2627 1.16458 12.1001ZM24.0332 19.9036H22.6138C22.2265 21.3342 21.5061 22.6448 20.5158 23.7206C21.0122 24.1311 21.549 24.4865 22.1173 24.7808L22.9095 25.1923C22.9779 25.2278 23.0388 25.2769 23.0888 25.3368C23.1388 25.3966 23.1769 25.4661 23.201 25.5412C23.225 25.6163 23.2346 25.6955 23.229 25.7744C23.2235 25.8533 23.2029 25.9303 23.1686 26.001C23.1343 26.0717 23.0869 26.1347 23.029 26.1864C22.9712 26.2382 22.904 26.2776 22.8314 26.3025C22.7588 26.3274 22.6822 26.3372 22.606 26.3315C22.5297 26.3258 22.4553 26.3045 22.3869 26.269L21.5947 25.8575C20.9037 25.5003 20.2541 25.0631 19.6585 24.5543C19.0648 25.0632 18.4169 25.5004 17.7275 25.8575L16.9353 26.269C16.7973 26.3407 16.6374 26.3527 16.4908 26.3025C16.3442 26.2522 16.2229 26.1438 16.1536 26.001C16.0843 25.8582 16.0727 25.6928 16.1213 25.5411C16.1699 25.3895 16.2747 25.264 16.4127 25.1923L17.2049 24.7808C17.7718 24.487 18.3072 24.132 18.8021 23.7218C18.2156 23.0786 17.7205 22.3524 17.3316 21.565C17.2969 21.4945 17.2759 21.4176 17.2699 21.3388C17.2639 21.2599 17.273 21.1806 17.2966 21.1054C17.3202 21.0301 17.358 20.9604 17.4076 20.9003C17.4573 20.8401 17.5179 20.7907 17.586 20.7548C17.6542 20.7188 17.7285 20.6972 17.8047 20.691C17.881 20.6847 17.9576 20.6941 18.0304 20.7186C18.1031 20.743 18.1704 20.782 18.2286 20.8334C18.2868 20.8848 18.3346 20.9475 18.3693 21.018C18.71 21.7073 19.1442 22.3428 19.6587 22.9051C20.447 22.0509 21.0412 21.0255 21.3979 19.9036H15.2891C15.1346 19.9036 14.9865 19.8402 14.8773 19.7272C14.7681 19.6142 14.7068 19.461 14.7068 19.3013C14.7068 19.1415 14.7681 18.9883 14.8773 18.8753C14.9865 18.7623 15.1346 18.6989 15.2891 18.6989H19.0788V16.8786C19.0788 16.7188 19.1402 16.5656 19.2494 16.4526C19.3586 16.3396 19.5067 16.2762 19.6612 16.2762C19.8156 16.2762 19.9637 16.3396 20.0729 16.4526C20.1821 16.5656 20.2435 16.7188 20.2435 16.8786V18.6989H24.0332C24.1876 18.6989 24.3357 18.7623 24.4449 18.8753C24.5541 18.9883 24.6155 19.1415 24.6155 19.3013C24.6155 19.461 24.5541 19.6142 24.4449 19.7272C24.3357 19.8402 24.1876 19.9036 24.0332 19.9036Z" fill="#474B7C"/>
<path d="M10.3807 6.10885C10.1905 5.62232 9.79131 5.32005 9.33883 5.32005C8.88635 5.32005 8.48711 5.62232 8.29697 6.10889L5.78323 12.5418C5.75457 12.6151 5.74016 12.6936 5.74081 12.7727C5.74147 12.8518 5.75718 12.93 5.78705 13.0028C5.81691 13.0756 5.86036 13.1417 5.91489 13.1971C5.96942 13.2526 6.03398 13.2964 6.10488 13.326C6.17578 13.3557 6.25162 13.3706 6.32809 13.3699C6.40456 13.3692 6.48015 13.353 6.55054 13.3221C6.62094 13.2912 6.68476 13.2462 6.73837 13.1898C6.79198 13.1334 6.83432 13.0666 6.86298 12.9933L7.8054 10.5816H10.8722L11.8146 12.9933C11.8432 13.0669 11.8854 13.1339 11.939 13.1905C11.9926 13.2472 12.0564 13.2923 12.1269 13.3234C12.1974 13.3544 12.2731 13.3708 12.3497 13.3715C12.4264 13.3723 12.5024 13.3574 12.5734 13.3277C12.6444 13.298 12.7091 13.254 12.7637 13.1984C12.8183 13.1428 12.8617 13.0766 12.8915 13.0036C12.9214 12.9306 12.937 12.8523 12.9375 12.773C12.9379 12.6938 12.9233 12.6152 12.8944 12.5418L10.3807 6.10885ZM8.27619 9.37677L9.33883 6.65738L10.4015 9.37677H8.27619Z" fill="#474B7C"/>
</svg>
