<svg width="100" height="100" viewBox="0 0 100 100" fill="none" xmlns="http://www.w3.org/2000/svg">
<path d="M0 29.84C0 5.26676 5.26676 0 29.84 0H70.16C94.7332 0 100 5.26676 100 29.84V70.16C100 94.7332 94.7332 100 70.16 100H29.84C5.26676 100 0 94.7332 0 70.16V29.84Z" fill="white"/>
<path d="M44.3624 9.328C36.4904 10.23 28.7004 13.592 22.5914 18.6965C16.9539 23.4525 12.6284 30.1355 10.5374 37.372C8.75393 43.6245 8.52843 51.394 9.94293 57.7695C11.5624 65.0265 15.0064 71.32 20.2339 76.6295C21.2999 77.716 22.3249 78.823 22.5094 79.11C22.7759 79.4995 22.8784 80.5245 23.0424 84.2555L23.2474 88.8885L23.8419 89.6675C24.4979 90.5285 25.4409 91 26.5069 91C26.9579 91 28.8439 90.2825 31.6934 89.032C34.1534 87.9455 36.4494 87.023 36.7979 86.9615C37.1669 86.9 38.4584 87.0845 39.6679 87.3715C43.6244 88.294 44.9159 88.4375 50.1024 88.4375C54.2434 88.417 55.4119 88.3555 57.4824 87.9865C74.8869 84.85 87.3099 72.796 90.4054 56.068C90.9589 53.075 91.1434 47.663 90.8154 44.4855C89.2164 29.5615 80.0734 17.5075 66.1129 11.9725C59.6964 9.41 51.8654 8.467 44.3624 9.328ZM79.4584 31.263C79.3354 32.862 78.2899 35.1785 77.2239 36.2035C75.6249 37.741 73.1649 38.7455 70.3974 38.9915L69.5774 39.0735L69.4339 40.7955C68.9214 46.4945 66.7689 51.353 62.9764 55.33C61.3159 57.093 58.8354 58.9585 57.9539 59.1225C57.7284 59.1635 57.4414 59.2865 57.2979 59.389C57.1749 59.4915 56.5599 59.7375 55.9244 59.922L54.7764 60.25L54.5099 61.4185C54.3664 62.0745 54.0794 63.1405 53.8744 63.776C53.6694 64.432 53.4439 65.2725 53.3619 65.6825L53.2389 66.4H54.2434C55.9654 66.4 56.4984 67.179 55.9244 68.819C55.6169 69.721 54.7559 69.9465 52.1319 69.844C50.2664 69.7825 49.9384 69.721 49.5489 69.311L49.0774 68.86L49.9794 65.3135C50.4919 63.3865 50.9224 61.644 50.9839 61.4595C51.0454 61.152 50.9019 61.1315 49.7539 61.234C46.7404 61.5415 43.2144 61.3775 40.1599 60.783C39.2784 60.619 35.7729 59.635 35.3424 59.4505C34.2969 58.9585 34.0714 58.979 33.9279 59.5735C33.8664 59.881 33.4974 61.398 33.1079 62.915C32.6979 64.432 32.3699 65.8465 32.3699 66.031C32.3699 66.3385 32.5544 66.4 33.3539 66.4C34.7069 66.4 35.1374 66.851 34.9734 68.163C34.8094 69.6595 34.5839 69.762 31.7344 69.844C29.7459 69.9055 29.1719 69.8645 28.7824 69.598C27.9009 69.024 27.9419 68.8805 30.5249 59.1225C31.0989 56.97 31.9189 53.7515 32.3699 51.9475C32.8209 50.1435 33.2924 48.442 33.3949 48.155C33.8459 47.048 33.8254 46.556 33.2924 45.982C32.7184 45.367 31.0784 42.62 30.7299 41.6975C30.3609 40.7135 29.8894 38.315 29.7869 36.7775C29.6844 35.3835 30.0739 32.2265 30.4839 31.14C30.6479 30.689 30.6889 30.7505 30.8324 31.755C31.2629 34.9735 32.2674 37.372 34.1944 39.8115C35.5064 41.472 37.8844 43.399 39.4424 44.055C39.9959 44.301 40.7339 44.629 41.0824 44.7725C43.4809 45.8795 48.8519 45.9615 51.2299 44.9365C51.6194 44.7725 52.0499 44.6085 52.1934 44.588C52.6649 44.506 55.2684 42.989 55.9654 42.3945C56.3549 42.0665 56.7034 41.8 56.7649 41.8C56.8264 41.8 57.6054 42.087 58.5074 42.415C59.4094 42.743 60.4139 43.03 60.7214 43.03C61.3979 43.03 62.2589 42.62 62.7714 42.046C63.3249 41.4515 64.2884 39.299 64.6574 37.905C65.2109 35.7525 64.9854 35.691 64.0424 37.782C63.0379 40.037 62.2384 41.308 61.6234 41.636C61.0289 41.9435 59.5529 41.677 57.9129 40.939C55.4939 39.873 55.2479 39.2785 56.5394 37.4745C57.5849 35.9985 58.1384 34.8915 58.8969 32.6775C59.9014 29.7665 59.1839 29.951 70.3769 29.9305L79.5814 29.91L79.4584 31.263ZM61.0904 58.7945C60.9674 58.9995 60.5164 60.6395 60.0859 62.423C59.6349 64.227 59.2454 65.826 59.2044 65.99C59.1429 66.195 59.3684 66.318 60.0244 66.4C61.2134 66.5845 61.7464 67.1995 61.5619 68.2245C61.4799 68.6345 61.2339 69.1675 61.0084 69.4135C60.6394 69.844 60.3934 69.885 58.7124 69.885C57.6874 69.885 56.7854 69.8235 56.7239 69.762C56.6419 69.7005 56.7239 69.4135 56.8879 69.106C57.3799 68.1425 57.2569 66.933 56.5804 66.2155C55.9039 65.498 55.8629 65.9695 56.9494 62.1975C57.1749 61.398 57.3799 60.701 57.3799 60.619C57.3799 60.5575 57.9949 60.209 58.7329 59.8605C59.4709 59.512 60.3114 59.0405 60.5984 58.815C61.2544 58.3025 61.3364 58.3025 61.0904 58.7945ZM37.8024 61.2545C38.8069 61.521 39.2169 61.7055 39.1554 61.9105C38.6019 63.9605 38.1099 65.949 38.1099 66.1335C38.1099 66.2975 38.3969 66.4 38.9094 66.4C39.5449 66.4 39.8114 66.523 40.1599 66.9535C40.5699 67.4865 40.5904 67.8555 40.2419 69.106C40.0984 69.6185 39.0529 69.885 37.2284 69.885C35.6294 69.885 35.6089 69.885 35.7524 69.4135C35.8344 69.1675 35.9369 68.491 35.9984 67.8965C36.1009 66.9125 36.0599 66.7895 35.4654 66.195C34.9734 65.703 34.8709 65.4775 35.0349 65.1905C35.1374 64.9855 35.4244 63.94 35.6704 62.8535C35.9164 61.7465 36.1829 60.865 36.2444 60.865C36.3059 60.865 37.0234 61.0495 37.8024 61.2545Z" fill="#636DEA"/>
<path d="M67.6914 32.165C67.0149 32.4315 66.7689 33.026 67.0354 33.7845C67.3019 34.5225 68.0194 34.789 68.7779 34.4405C69.3724 34.174 69.4134 33.887 68.8599 33.7435C68.6344 33.682 68.4499 33.477 68.4499 33.2925C68.4499 33.108 68.6344 32.903 68.8599 32.8415C69.3314 32.7185 69.3929 32.4725 69.0239 32.2265C68.6344 32.001 68.2039 31.9805 67.6914 32.165Z" fill="url(#paint0_linear_18_97)"/>
<defs>
<linearGradient id="paint0_linear_18_97" x1="68.0963" y1="34.592" x2="68.0963" y2="32.0405" gradientUnits="userSpaceOnUse">
<stop stop-color="#DF1D1D"/>
<stop offset="0.9999" stop-color="#3FC64C"/>
<stop offset="1" stop-color="#F83F3F" stop-opacity="0.52"/>
</linearGradient>
</defs>
</svg>
