<svg width="18" height="18" viewBox="0 0 18 18" fill="none" xmlns="http://www.w3.org/2000/svg">
<g clip-path="url(#clip0_335_156)">
<path d="M17.1359 12.906L14.9579 10.71C14.5979 10.35 14.1119 10.134 13.6619 10.134C13.1759 10.134 12.7439 10.332 12.3659 10.71L11.1059 11.97C11.0519 11.934 10.9799 11.898 10.9259 11.88C10.9259 11.88 10.9079 11.88 10.9079 11.862L10.8899 11.844C10.7279 11.736 10.5479 11.628 10.3319 11.538C9.23391 10.854 8.20791 9.9 7.16391 8.622C6.67791 8.01 6.33591 7.47 6.06591 6.876C6.35391 6.642 6.56991 6.408 6.73191 6.228L7.28991 5.67C7.72191 5.274 7.93791 4.824 7.93791 4.356C7.93791 3.87 7.72191 3.42 7.30791 2.988L5.59791 1.278C5.43591 1.116 5.27391 0.953999 5.09391 0.791999C4.73391 0.449999 4.28391 0.251999 3.81591 0.251999C3.29391 0.251999 2.86191 0.431999 2.46591 0.827999L1.15191 2.142C0.629912 2.628 0.323912 3.24 0.251912 3.996V4.014C0.215912 4.95 0.359911 5.814 0.755911 6.894C1.38591 8.586 2.33991 10.17 3.76191 11.916C5.61591 14.004 7.70391 15.624 10.0259 16.74L10.0799 16.758C10.7639 17.064 12.0599 17.64 13.4999 17.73H13.6979C14.6519 17.73 15.3719 17.424 15.9659 16.776C16.1819 16.524 16.4159 16.29 16.6139 16.074C16.7759 15.948 16.8839 15.822 16.9919 15.696L17.1359 15.552L17.1719 15.516C17.9279 14.688 17.9279 13.68 17.1359 12.906ZM16.5059 14.904L16.3259 15.084L16.3079 15.12C16.2179 15.228 16.1459 15.318 16.0559 15.39L16.0019 15.444C15.7859 15.66 15.5339 15.912 15.2819 16.2C14.8679 16.65 14.3999 16.848 13.6979 16.848H13.5539C12.2939 16.758 11.1419 16.254 10.4579 15.948L10.4219 15.93C8.20791 14.868 6.20991 13.32 4.46391 11.34C3.09591 9.684 2.19591 8.172 1.60191 6.588C1.24191 5.598 1.11591 4.878 1.15191 4.068C1.20591 3.546 1.40391 3.132 1.76391 2.808L3.09591 1.476C3.31191 1.26 3.52791 1.17 3.79791 1.17C4.03191 1.17 4.24791 1.278 4.44591 1.458L4.46391 1.476C4.62591 1.62 4.78791 1.782 4.94991 1.944L6.65991 3.654C6.98391 3.978 7.03791 4.23 7.03791 4.374C7.03791 4.518 7.00191 4.734 6.65991 5.04L6.08391 5.616C5.88591 5.832 5.65191 6.066 5.34591 6.318L5.30991 6.354L5.27391 6.408C5.11191 6.624 5.09391 6.822 5.18391 7.11L5.20191 7.182L5.21991 7.254C5.52591 7.92 5.90391 8.532 6.44391 9.216C7.55991 10.584 8.67591 11.61 9.86391 12.348L9.91791 12.384C10.0619 12.456 10.2059 12.528 10.3319 12.6C10.3859 12.654 10.4579 12.69 10.5119 12.708C10.5839 12.744 10.6379 12.762 10.6739 12.798L10.7999 12.888H10.8359L10.8899 12.906C10.9979 12.942 11.0699 12.942 11.1239 12.942C11.3039 12.942 11.4659 12.87 11.6279 12.708L12.9779 11.358C13.1939 11.142 13.3919 11.052 13.6439 11.052C13.9139 11.052 14.1659 11.214 14.3099 11.358L16.5059 13.554C16.9379 13.986 16.9559 14.436 16.5059 14.904Z" fill="#303575" stroke="#303575" stroke-width="0.5"/>
</g>
<defs>
<clipPath id="clip0_335_156">
<rect width="18" height="18" fill="white"/>
</clipPath>
</defs>
</svg>
