<svg width="19" height="19" viewBox="0 0 19 19" fill="none" xmlns="http://www.w3.org/2000/svg">
<path d="M9.49984 0.791664C7.19024 0.791664 4.97524 1.70915 3.34212 3.34228C1.70899 4.97541 0.791504 7.1904 0.791504 9.5C0.791504 11.8096 1.70899 14.0246 3.34212 15.6577C4.97524 17.2908 7.19024 18.2083 9.49984 18.2083C9.7098 18.2083 9.91116 18.1249 10.0596 17.9765C10.2081 17.828 10.2915 17.6266 10.2915 17.4167C10.2915 17.2067 10.2081 17.0053 10.0596 16.8569C9.91116 16.7084 9.7098 16.625 9.49984 16.625C8.09065 16.625 6.7131 16.2071 5.5414 15.4242C4.3697 14.6413 3.45647 13.5285 2.9172 12.2266C2.37792 10.9247 2.23682 9.49209 2.51174 8.10998C2.78666 6.72786 3.46525 5.45831 4.4617 4.46186C5.45815 3.46541 6.7277 2.78682 8.10982 2.5119C9.49193 2.23698 10.9245 2.37808 12.2265 2.91736C13.5284 3.45663 14.6412 4.36986 15.4241 5.54156C16.207 6.71326 16.6248 8.09081 16.6248 9.5V11.7618C16.6248 12.1517 16.4699 12.5256 16.1942 12.8013C15.9185 13.077 15.5446 13.2319 15.1547 13.2319C14.7648 13.2319 14.3909 13.077 14.1152 12.8013C13.8395 12.5256 13.6846 12.1517 13.6846 11.7618V6.10691C13.6846 5.89695 13.6012 5.69559 13.4527 5.54712C13.3042 5.39865 13.1029 5.31525 12.8929 5.31525C12.683 5.31525 12.4816 5.39865 12.3331 5.54712C12.1847 5.69559 12.1013 5.89695 12.1013 6.10691V6.24862C11.3665 5.64895 10.4482 5.31949 9.49984 5.31525C8.82123 5.31044 8.15164 5.47074 7.54878 5.78233C6.94592 6.09391 6.42788 6.54744 6.03932 7.10381C5.65076 7.66018 5.40334 8.3027 5.31838 8.97598C5.23341 9.64926 5.31347 10.3331 5.55163 10.9686C5.7898 11.604 6.17894 12.172 6.68549 12.6236C7.19205 13.0752 7.80083 13.3968 8.45935 13.5607C9.11788 13.7246 9.80639 13.726 10.4655 13.5645C11.1247 13.4031 11.7347 13.0839 12.243 12.6342C12.4513 13.3363 12.9057 13.9398 13.5229 14.3341C14.1401 14.7285 14.8787 14.8872 15.6034 14.7812C16.328 14.6752 16.9902 14.3116 17.4686 13.7571C17.947 13.2025 18.2096 12.4942 18.2082 11.7618V9.5C18.2054 7.19124 17.2871 4.97782 15.6546 3.34528C14.022 1.71275 11.8086 0.794388 9.49984 0.791664ZM9.49984 12.1014C8.98533 12.1014 8.48237 11.9488 8.05457 11.663C7.62677 11.3771 7.29334 10.9709 7.09644 10.4955C6.89955 10.0202 6.84803 9.49711 6.94841 8.99249C7.04878 8.48786 7.29654 8.02433 7.66036 7.66052C8.02417 7.2967 8.4877 7.04894 8.99233 6.94857C9.49695 6.84819 10.02 6.89971 10.4954 7.0966C10.9707 7.2935 11.377 7.62693 11.6628 8.05473C11.9487 8.48253 12.1013 8.98549 12.1013 9.5C12.1004 10.1897 11.8261 10.8509 11.3384 11.3386C10.8507 11.8262 10.1895 12.1006 9.49984 12.1014Z" fill="#303575"/>
</svg>
