<svg width="65" height="65" viewBox="0 0 65 65" fill="none" xmlns="http://www.w3.org/2000/svg">
<path fill-rule="evenodd" clip-rule="evenodd" d="M32.5 65C50.4493 65 65 50.4493 65 32.5C65 14.5507 50.4493 0 32.5 0C14.5507 0 0 14.5507 0 32.5C0 50.4493 14.5507 65 32.5 65ZM32.9983 19.8042C34.1029 19.8042 34.9983 20.6996 34.9983 21.8042V30.7518H44.5852C45.6897 30.7518 46.5852 31.6472 46.5852 32.7518C46.5852 33.8563 45.6897 34.7518 44.5852 34.7518H34.9983V43.5199C34.9983 44.6245 34.1029 45.5199 32.9983 45.5199C31.8937 45.5199 30.9983 44.6245 30.9983 43.5199V34.7518H20.9811C19.8765 34.7518 18.9811 33.8563 18.9811 32.7518C18.9811 31.6472 19.8765 30.7518 20.9811 30.7518H30.9983V21.8042C30.9983 20.6996 31.8937 19.8042 32.9983 19.8042Z" fill="white"/>
</svg>
