<svg width="63" height="63" viewBox="0 0 63 63" fill="none" xmlns="http://www.w3.org/2000/svg">
<path d="M0 18.7992C0 3.31806 3.31806 0 18.7992 0H44.2008C59.6819 0 63 3.31806 63 18.7992V44.2008C63 59.6819 59.6819 63 44.2008 63H18.7992C3.31806 63 0 59.6819 0 44.2008V18.7992Z" fill="white"/>
<g clip-path="url(#clip0_213_108)">
<path d="M27.9483 5.87658C22.9889 6.44484 18.0812 8.5629 14.2326 11.7787C10.6809 14.775 7.95588 18.9853 6.63855 23.5443C5.51494 27.4834 5.37288 32.3782 6.26401 36.3947C7.2843 40.9666 9.45402 44.9315 12.7473 48.2765C13.4189 48.961 14.0647 49.6584 14.1809 49.8392C14.3488 50.0846 14.4134 50.7304 14.5167 53.0809L14.6458 55.9997L15.0204 56.4905C15.4337 57.0329 16.0278 57.3299 16.6993 57.3299C16.9835 57.3299 18.1716 56.8779 19.9668 56.0901C21.5166 55.4056 22.9631 54.8244 23.1827 54.7857C23.4151 54.7469 24.2288 54.8632 24.9908 55.044C27.4834 55.6252 28.297 55.7156 31.5645 55.7156C34.1733 55.7027 34.9095 55.6639 36.2139 55.4314C47.1787 53.4554 55.0052 45.8614 56.9554 35.3228C57.3041 33.4372 57.4203 30.0276 57.2137 28.0258C56.2063 18.6237 50.4462 11.0297 41.6511 7.54261C37.6087 5.92824 32.6752 5.33415 27.9483 5.87658ZM50.0588 19.6956C49.9813 20.703 49.3226 22.1624 48.651 22.8081C47.6437 23.7768 46.0939 24.4096 44.3503 24.5646L43.8337 24.6162L43.7433 25.7011C43.4205 29.2915 42.0644 32.3523 39.6751 34.8578C38.629 35.9685 37.0663 37.1438 36.5109 37.2471C36.3689 37.2729 36.1881 37.3504 36.0977 37.415C36.0202 37.4796 35.6327 37.6346 35.2324 37.7508L34.5091 37.9574L34.3412 38.6936C34.2508 39.1069 34.07 39.7785 33.9409 40.1788C33.8117 40.5921 33.6696 41.1216 33.618 41.3799L33.5405 41.8319H34.1733C35.2582 41.8319 35.594 42.3227 35.2324 43.3559C35.0386 43.9242 34.4962 44.0662 32.8431 44.0017C31.6678 43.9629 31.4612 43.9242 31.2158 43.6659L30.9187 43.3817L31.487 41.1474C31.8099 39.9334 32.0811 38.8357 32.1198 38.7194C32.1586 38.5257 32.0682 38.5128 31.3449 38.5774C29.4464 38.7711 27.2251 38.6678 25.3007 38.2932C24.7454 38.1899 22.5369 37.57 22.2657 37.4538C21.607 37.1438 21.465 37.1567 21.3746 37.5312C21.3358 37.725 21.1033 38.6807 20.858 39.6364C20.5997 40.5921 20.393 41.4832 20.393 41.5995C20.393 41.7932 20.5093 41.8319 21.0129 41.8319C21.8653 41.8319 22.1365 42.1161 22.0332 42.9426C21.9299 43.8854 21.7878 43.95 19.9927 44.0017C18.7399 44.0404 18.3783 44.0146 18.1329 43.8467C17.5776 43.4851 17.6034 43.3947 19.2307 37.2471C19.5923 35.891 20.1089 33.8634 20.393 32.7269C20.6772 31.5903 20.9742 30.5184 21.0388 30.3376C21.3229 29.6402 21.31 29.3302 20.9742 28.9686C20.6126 28.5811 19.5794 26.8505 19.3598 26.2694C19.1274 25.6494 18.8303 24.1384 18.7657 23.1698C18.7012 22.2915 18.9465 20.3026 19.2048 19.6181C19.3082 19.334 19.334 19.3728 19.4244 20.0056C19.6956 22.0332 20.3284 23.5443 21.5425 25.0812C22.369 26.1273 23.8672 27.3413 24.8487 27.7546C25.1974 27.9096 25.6623 28.1162 25.8819 28.2066C27.393 28.904 30.7767 28.9557 32.2748 28.3099C32.5202 28.2066 32.7914 28.1033 32.8818 28.0904C33.1789 28.0387 34.8191 27.083 35.2582 26.7085C35.5036 26.5018 35.7231 26.3339 35.7619 26.3339C35.8006 26.3339 36.2914 26.5147 36.8596 26.7214C37.4279 26.928 38.0607 27.1088 38.2545 27.1088C38.6807 27.1088 39.2231 26.8505 39.546 26.4889C39.8947 26.1144 40.5017 24.7583 40.7341 23.8801C41.0828 22.524 40.9408 22.4853 40.3467 23.8026C39.7139 25.2232 39.2102 26.024 38.8227 26.2306C38.4482 26.4243 37.5183 26.2564 36.4851 25.7915C34.9611 25.1199 34.8062 24.7454 35.6198 23.6089C36.2785 22.679 36.6272 21.9816 37.105 20.5868C37.7379 18.7528 37.2858 18.8691 44.3374 18.8562L50.1363 18.8432L50.0588 19.6956ZM38.4869 37.0405C38.4094 37.1696 38.1253 38.2028 37.8541 39.3264C37.57 40.4629 37.3246 41.4703 37.2988 41.5736C37.26 41.7028 37.4021 41.7803 37.8154 41.8319C38.5644 41.9482 38.9002 42.3356 38.784 42.9814C38.7323 43.2397 38.5773 43.5755 38.4353 43.7304C38.2028 44.0017 38.0478 44.0275 36.9888 44.0275C36.343 44.0275 35.7748 43.9887 35.736 43.95C35.6844 43.9113 35.736 43.7304 35.8394 43.5367C36.1493 42.9297 36.0718 42.1677 35.6456 41.7157C35.2194 41.2637 35.1936 41.5607 35.8781 39.1844C36.0202 38.6807 36.1493 38.2416 36.1493 38.1899C36.1493 38.1512 36.5368 37.9316 37.0017 37.7121C37.4667 37.4925 37.9962 37.1955 38.177 37.0534C38.5903 36.7305 38.6419 36.7305 38.4869 37.0405ZM23.8155 38.5903C24.4483 38.7582 24.7066 38.8744 24.6679 39.0036C24.3192 40.2951 24.0092 41.5478 24.0092 41.664C24.0092 41.7674 24.19 41.8319 24.5129 41.8319C24.9133 41.8319 25.0812 41.9094 25.3007 42.1806C25.559 42.5164 25.5719 42.7489 25.3524 43.5367C25.262 43.8596 24.6033 44.0275 23.4539 44.0275C22.4465 44.0275 22.4336 44.0275 22.524 43.7304C22.5757 43.5755 22.6402 43.1493 22.679 42.7747C22.7436 42.1548 22.7177 42.0773 22.3432 41.7028C22.0332 41.3928 21.9687 41.2508 22.072 41.07C22.1365 40.9408 22.3174 40.2821 22.4723 39.5976C22.6273 38.9002 22.7952 38.3449 22.834 38.3449C22.8727 38.3449 23.3247 38.4611 23.8155 38.5903Z" fill="#636DEA"/>
<path d="M42.6455 20.2639C42.2193 20.4318 42.0643 20.8063 42.2322 21.2842C42.4001 21.7491 42.8521 21.917 43.33 21.6975C43.7045 21.5296 43.7303 21.3488 43.3816 21.2584C43.2396 21.2196 43.1233 21.0905 43.1233 20.9742C43.1233 20.858 43.2396 20.7288 43.3816 20.6901C43.6787 20.6126 43.7174 20.4576 43.4849 20.3026C43.2396 20.1606 42.9683 20.1477 42.6455 20.2639Z" fill="url(#paint0_linear_213_108)"/>
</g>
<defs>
<linearGradient id="paint0_linear_213_108" x1="42.9006" y1="21.7929" x2="42.9006" y2="20.1854" gradientUnits="userSpaceOnUse">
<stop stop-color="#DF1D1D"/>
<stop offset="0.9999" stop-color="#3FC64C"/>
<stop offset="1" stop-color="#F83F3F" stop-opacity="0.52"/>
</linearGradient>
<clipPath id="clip0_213_108">
<rect width="51.66" height="51.66" fill="white" transform="translate(5.66992 5.66994)"/>
</clipPath>
</defs>
</svg>
