<svg width="49" height="49" viewBox="0 0 49 49" fill="none" xmlns="http://www.w3.org/2000/svg">
<path d="M42.6981 7.80267C42.7027 7.78181 42.7062 7.76073 42.7086 7.73951C42.7086 7.72515 42.7134 7.7108 42.7143 7.69644C42.7153 7.68208 42.7143 7.65816 42.7143 7.63902C42.7143 7.61988 42.7143 7.60552 42.7143 7.58925C42.7143 7.57298 42.7143 7.55576 42.7143 7.53949C42.7143 7.52322 42.7143 7.50025 42.7143 7.48207C42.7143 7.46388 42.7143 7.4524 42.7086 7.43804C42.7029 7.42369 42.7029 7.39593 42.6981 7.37488C42.6933 7.35382 42.6923 7.34808 42.6885 7.33468C42.6847 7.32128 42.678 7.29162 42.6713 7.27056V7.25812L42.6598 7.22749C42.6534 7.2083 42.6461 7.18945 42.6378 7.17103C42.6311 7.1538 42.6234 7.13849 42.6167 7.12222L42.5938 7.07628C42.5842 7.05906 42.5746 7.04279 42.5641 7.02652C42.5536 7.01025 42.5478 6.99972 42.5392 6.98632C42.5306 6.97293 42.5172 6.95474 42.5057 6.93847L42.476 6.90115C42.4646 6.88679 42.4521 6.87339 42.4406 6.86L42.4043 6.82171L42.3688 6.78822C42.3535 6.77482 42.3392 6.76142 42.3239 6.74994L42.2894 6.72218C42.2731 6.70974 42.2559 6.69826 42.2387 6.68677C42.2272 6.67822 42.215 6.67054 42.2023 6.6638L42.1487 6.63318L42.1057 6.61117C42.0894 6.60351 42.0722 6.5949 42.0549 6.5882C42.0375 6.58051 42.0196 6.5738 42.0013 6.5681L41.9678 6.55566H41.9554L41.8922 6.53939C41.8791 6.5353 41.8656 6.5321 41.8521 6.52982C41.83 6.52982 41.809 6.52216 41.7879 6.51929L41.7449 6.51355H41.6855H41.6377H41.585H41.5305L41.4846 6.51929L41.4243 6.52886L41.3821 6.53939L41.319 6.55566H41.3075L7.11565 17.4888C6.91739 17.5522 6.74155 17.6712 6.60907 17.8317C6.47659 17.9923 6.39307 18.1875 6.36845 18.3942C6.34384 18.6009 6.37918 18.8103 6.47026 18.9974C6.56133 19.1846 6.70431 19.3416 6.88213 19.4497L21.1122 28.1118L29.7743 42.3419C29.871 42.501 30.007 42.6324 30.1693 42.7236C30.3316 42.8148 30.5146 42.8627 30.7007 42.8625C30.7439 42.8629 30.7871 42.8603 30.8299 42.8549C31.0365 42.8304 31.2318 42.7471 31.3923 42.6147C31.5528 42.4823 31.6719 42.3066 31.7353 42.1084L42.6684 7.91943V7.90794C42.6751 7.88689 42.6808 7.86488 42.6856 7.84287C42.6904 7.82085 42.6952 7.81607 42.6981 7.80267ZM30.3916 39.1828L23.3373 27.5922L35.8744 14.9383C36.0775 14.7338 36.191 14.4571 36.19 14.1689C36.189 13.8808 36.0736 13.6048 35.8692 13.4018C35.6647 13.1987 35.388 13.0852 35.0998 13.0862C34.8117 13.0872 34.5357 13.2026 34.3327 13.407L21.8434 26.0159L10.0413 18.8315L39.96 9.26119L30.3916 39.1828Z" fill="white"/>
</svg>
