<svg width="13" height="13" viewBox="0 0 13 13" fill="none" xmlns="http://www.w3.org/2000/svg">
<path d="M9.96672 5.2963V3.6111C9.96672 1.63704 8.32968 0 6.35562 0C4.38153 0 2.74449 1.63704 2.74449 3.61112V5.29632C1.92596 5.29632 1.30005 5.92224 1.30005 6.74077V11.5556C1.30005 12.3741 1.92596 13 2.74449 13H9.96672C10.7852 13 11.4112 12.3741 11.4112 11.5556V6.74074C11.4112 5.97037 10.7852 5.2963 9.96672 5.2963ZM6.59635 9.10001V10.3519C6.59635 10.4963 6.50005 10.5926 6.35562 10.5926C6.21119 10.5926 6.11489 10.4963 6.11489 10.3519V9.10001C5.826 9.00372 5.63341 8.7148 5.63341 8.42594C5.63341 8.04075 5.97046 7.7037 6.35564 7.7037C6.74083 7.7037 7.07788 8.04075 7.07788 8.42594C7.07783 8.76296 6.88524 9.00372 6.59635 9.10001ZM8.52227 5.2963H4.18894V3.6111C4.18894 2.40741 5.1519 1.44444 6.35559 1.44444C7.55929 1.44444 8.52225 2.40741 8.52225 3.6111V5.2963H8.52227Z" fill="white"/>
</svg>
