<svg width="20" height="19" viewBox="0 0 20 19" fill="none" xmlns="http://www.w3.org/2000/svg">
<path d="M0.670574 19C0.576518 19.0006 0.483406 18.9794 0.39736 18.9378C0.311313 18.8961 0.234279 18.835 0.171324 18.7584C0.108368 18.6817 0.0609146 18.5914 0.032084 18.4932C0.00325343 18.3951 -0.00630188 18.2913 0.00404619 18.1888L0.517272 13.0733C0.535542 12.9098 0.603656 12.7579 0.710565 12.6422L11.615 0.686584C11.8131 0.468939 12.0484 0.296268 12.3074 0.178455C12.5665 0.0606421 12.8442 0 13.1246 0C13.4051 0 13.6828 0.0606421 13.9418 0.178455C14.2009 0.296268 14.4362 0.468939 14.6343 0.686584L16.7072 2.95932C16.9057 3.17653 17.0632 3.43453 17.1707 3.71855C17.2781 4.00258 17.3334 4.30705 17.3334 4.61454C17.3334 4.92203 17.2781 5.2265 17.1707 5.51052C17.0632 5.79455 16.9057 6.05255 16.7072 6.26976L5.8095 18.2181C5.70395 18.3353 5.56537 18.4099 5.41625 18.43L0.750557 18.9927L0.670574 19ZM1.82367 13.4826L1.42375 17.4434L5.03633 17.005L15.7674 5.23936C15.842 5.15789 15.9012 5.06108 15.9415 4.95449C15.9819 4.84789 16.0027 4.73361 16.0027 4.61819C16.0027 4.50277 15.9819 4.38849 15.9415 4.2819C15.9012 4.17531 15.842 4.0785 15.7674 3.99703L13.6879 1.71699C13.6136 1.63523 13.5253 1.57037 13.428 1.5261C13.3308 1.48184 13.2266 1.45906 13.1213 1.45906C13.016 1.45906 12.9118 1.48184 12.8146 1.5261C12.7174 1.57037 12.6291 1.63523 12.5548 1.71699L1.82367 13.4826Z" fill="#101820"/>
<path d="M14.6678 8.19174C14.58 8.19229 14.4931 8.17386 14.4119 8.13749C14.3307 8.10112 14.2568 8.04754 14.1945 7.97981L10.0554 3.42704C9.99325 3.3589 9.94395 3.27801 9.91032 3.18898C9.87669 3.09996 9.85938 3.00454 9.85938 2.90818C9.85938 2.81182 9.87669 2.7164 9.91032 2.62738C9.94395 2.53835 9.99325 2.45746 10.0554 2.38932C10.1175 2.32119 10.1913 2.26714 10.2725 2.23026C10.3537 2.19339 10.4407 2.17441 10.5286 2.17441C10.6165 2.17441 10.7035 2.19339 10.7847 2.23026C10.8659 2.26714 10.9397 2.32119 11.0019 2.38932L15.1543 6.9421C15.2168 7.01003 15.2664 7.09086 15.3002 7.17991C15.3341 7.26896 15.3515 7.36448 15.3515 7.46095C15.3515 7.55743 15.3341 7.65294 15.3002 7.742C15.2664 7.83105 15.2168 7.91187 15.1543 7.97981C15.0905 8.04931 15.0144 8.10392 14.9308 8.14034C14.8472 8.17677 14.7577 8.19425 14.6678 8.19174Z" fill="#101820"/>
<path d="M10.0592 6.94476L4.87012 12.6341L5.81273 13.6676L11.0018 7.97824L10.0592 6.94476Z" fill="#101820"/>
</svg>
