<svg width="29" height="29" viewBox="0 0 29 29" fill="none" xmlns="http://www.w3.org/2000/svg">
<g clip-path="url(#clip0_46_393)">
<path d="M14.5 8.83594C13.3798 8.83594 12.2847 9.16813 11.3532 9.7905C10.4218 10.4129 9.69579 11.2975 9.26709 12.3325C8.83839 13.3674 8.72622 14.5063 8.94477 15.605C9.16332 16.7037 9.70277 17.713 10.4949 18.5051C11.287 19.2972 12.2963 19.8367 13.395 20.0552C14.4937 20.2738 15.6326 20.1616 16.6675 19.7329C17.7025 19.3042 18.5871 18.5782 19.2095 17.6468C19.8319 16.7153 20.1641 15.6202 20.1641 14.5C20.1641 12.9978 19.5673 11.5571 18.5051 10.4949C17.4429 9.43269 16.0022 8.83594 14.5 8.83594ZM14.5 18.8047C13.6486 18.8047 12.8163 18.5522 12.1084 18.0792C11.4005 17.6062 10.8488 16.9339 10.523 16.1473C10.1972 15.3608 10.1119 14.4952 10.278 13.6602C10.4441 12.8252 10.8541 12.0581 11.4561 11.4561C12.0582 10.8541 12.8252 10.4441 13.6602 10.278C14.4952 10.1119 15.3608 10.1972 16.1473 10.523C16.9339 10.8488 17.6062 11.4005 18.0792 12.1084C18.5522 12.8163 18.8047 13.6486 18.8047 14.5C18.8047 15.6417 18.3512 16.7366 17.5439 17.5439C16.7366 18.3512 15.6417 18.8047 14.5 18.8047Z" fill="#474B7C"/>
<path d="M27.4141 10.875H25.3909C25.3438 10.8747 25.2979 10.8596 25.2598 10.832C25.2216 10.8044 25.193 10.7656 25.1779 10.7209C25.0462 10.347 24.895 9.98019 24.7248 9.62211C24.7035 9.57986 24.696 9.53202 24.7033 9.48529C24.7107 9.43857 24.7324 9.3953 24.7655 9.36156L26.1952 7.92969C26.3424 7.78242 26.4593 7.60758 26.539 7.41515C26.6187 7.22273 26.6597 7.01648 26.6597 6.8082C26.6597 6.59992 26.6187 6.39368 26.539 6.20125C26.4593 6.00883 26.3424 5.83399 26.1952 5.68672L23.311 2.80484C23.1637 2.65756 22.9889 2.54072 22.7965 2.46101C22.6041 2.3813 22.3978 2.34028 22.1895 2.34028C21.9813 2.34028 21.775 2.3813 21.5826 2.46101C21.3902 2.54072 21.2153 2.65756 21.068 2.80484L19.6384 4.23445C19.6047 4.26759 19.5614 4.28935 19.5147 4.29666C19.468 4.30397 19.4201 4.29648 19.3779 4.27523C19.0198 4.10498 18.6531 3.95372 18.2791 3.82211C18.2344 3.80704 18.1956 3.77842 18.168 3.74025C18.1404 3.70208 18.1253 3.65625 18.125 3.60914V1.58594C18.125 1.16532 17.9579 0.761931 17.6605 0.46451C17.3631 0.167089 16.9597 0 16.5391 0H12.4609C12.0403 0 11.6369 0.167089 11.3395 0.46451C11.0421 0.761931 10.875 1.16532 10.875 1.58594V3.60914C10.8747 3.65625 10.8596 3.70208 10.832 3.74025C10.8044 3.77842 10.7656 3.80704 10.7209 3.82211C10.347 3.95378 9.98019 4.10503 9.62211 4.27523C9.57986 4.29648 9.53202 4.30397 9.48529 4.29666C9.43857 4.28935 9.3953 4.26759 9.36156 4.23445L7.92969 2.80484C7.78242 2.65756 7.60758 2.54072 7.41515 2.46101C7.22273 2.3813 7.01648 2.34028 6.8082 2.34028C6.59992 2.34028 6.39368 2.3813 6.20125 2.46101C6.00883 2.54072 5.83399 2.65756 5.68672 2.80484L2.80484 5.68898C2.65756 5.83625 2.54072 6.01109 2.46101 6.20352C2.3813 6.39594 2.34028 6.60219 2.34028 6.81047C2.34028 7.01875 2.3813 7.22499 2.46101 7.41742C2.54072 7.60984 2.65756 7.78468 2.80484 7.93195L4.23445 9.36156C4.26759 9.3953 4.28935 9.43857 4.29666 9.48529C4.30397 9.53202 4.29648 9.57986 4.27523 9.62211C4.10498 9.98016 3.95372 10.3469 3.82211 10.7209C3.80704 10.7656 3.77842 10.8044 3.74025 10.832C3.70208 10.8596 3.65625 10.8747 3.60914 10.875H1.58594C1.16532 10.875 0.761931 11.0421 0.46451 11.3395C0.167089 11.6369 0 12.0403 0 12.4609L0 16.5391C0 16.9597 0.167089 17.3631 0.46451 17.6605C0.761931 17.9579 1.16532 18.125 1.58594 18.125H3.60914C3.65625 18.1253 3.70208 18.1404 3.74025 18.168C3.77842 18.1956 3.80704 18.2344 3.82211 18.2791C3.95378 18.653 4.10503 19.0198 4.27523 19.3779C4.29648 19.4201 4.30397 19.468 4.29666 19.5147C4.28935 19.5614 4.26759 19.6047 4.23445 19.6384L2.80484 21.0703C2.65756 21.2176 2.54072 21.3924 2.46101 21.5848C2.3813 21.7773 2.34028 21.9835 2.34028 22.1918C2.34028 22.4001 2.3813 22.6063 2.46101 22.7987C2.54072 22.9912 2.65756 23.166 2.80484 23.3133L5.68898 26.1974C5.83625 26.3447 6.01109 26.4615 6.20352 26.5413C6.39594 26.621 6.60219 26.662 6.81047 26.662C7.01875 26.662 7.22499 26.621 7.41742 26.5413C7.60984 26.4615 7.78468 26.3447 7.93195 26.1974L9.36156 24.7678C9.3953 24.7347 9.43857 24.7129 9.48529 24.7056C9.53202 24.6983 9.57986 24.7058 9.62211 24.727C9.98016 24.8973 10.3469 25.0485 10.7209 25.1802C10.7656 25.1952 10.8044 25.2238 10.832 25.262C10.8596 25.3002 10.8747 25.346 10.875 25.3931V27.4141C10.875 27.8347 11.0421 28.2381 11.3395 28.5355C11.6369 28.8329 12.0403 29 12.4609 29H16.5391C16.9597 29 17.3631 28.8329 17.6605 28.5355C17.9579 28.2381 18.125 27.8347 18.125 27.4141V25.3909C18.1253 25.3438 18.1404 25.2979 18.168 25.2598C18.1956 25.2216 18.2344 25.193 18.2791 25.1779C18.653 25.0462 19.0198 24.895 19.3779 24.7248C19.4201 24.7035 19.468 24.696 19.5147 24.7033C19.5614 24.7107 19.6047 24.7324 19.6384 24.7655L21.0703 26.1952C21.2176 26.3424 21.3924 26.4593 21.5848 26.539C21.7773 26.6187 21.9835 26.6597 22.1918 26.6597C22.4001 26.6597 22.6063 26.6187 22.7987 26.539C22.9912 26.4593 23.166 26.3424 23.3133 26.1952L26.1974 23.311C26.3447 23.1637 26.4615 22.9889 26.5413 22.7965C26.621 22.6041 26.662 22.3978 26.662 22.1895C26.662 21.9813 26.621 21.775 26.5413 21.5826C26.4615 21.3902 26.3447 21.2153 26.1974 21.068L24.7678 19.6384C24.7347 19.6047 24.7129 19.5614 24.7056 19.5147C24.6983 19.468 24.7058 19.4201 24.727 19.3779C24.8973 19.0198 25.0485 18.6531 25.1802 18.2791C25.1952 18.2344 25.2238 18.1956 25.262 18.168C25.3002 18.1404 25.346 18.1253 25.3931 18.125H27.4141C27.8347 18.125 28.2381 17.9579 28.5355 17.6605C28.8329 17.3631 29 16.9597 29 16.5391V12.4609C29 12.0403 28.8329 11.6369 28.5355 11.3395C28.2381 11.0421 27.8347 10.875 27.4141 10.875ZM27.6406 16.5391C27.6406 16.5991 27.6168 16.6568 27.5743 16.6993C27.5318 16.7418 27.4741 16.7656 27.4141 16.7656H25.3909C25.0622 16.766 24.7419 16.8684 24.474 17.0588C24.2061 17.2491 24.004 17.518 23.8955 17.8282C23.7796 18.1567 23.6465 18.4788 23.4968 18.7934C23.3532 19.0898 23.3056 19.4236 23.3604 19.7484C23.4152 20.0732 23.5698 20.3729 23.8027 20.6059L25.2323 22.0355C25.2745 22.0779 25.2981 22.1353 25.2981 22.1952C25.2981 22.255 25.2745 22.3125 25.2323 22.3549L22.3504 25.2345C22.3079 25.2767 22.2505 25.3004 22.1907 25.3004C22.1308 25.3004 22.0734 25.2767 22.0309 25.2345L20.6013 23.8049C20.3684 23.572 20.0687 23.4174 19.7439 23.3626C19.4191 23.3078 19.0853 23.3555 18.7888 23.4991C18.4736 23.6489 18.1507 23.782 17.8214 23.8978C17.5116 24.0066 17.2433 24.2089 17.0533 24.4768C16.8634 24.7446 16.7613 25.0648 16.7611 25.3931V27.4141C16.7611 27.4741 16.7372 27.5318 16.6947 27.5743C16.6522 27.6168 16.5946 27.6406 16.5345 27.6406H12.4609C12.4008 27.6406 12.3432 27.6168 12.3007 27.5743C12.2582 27.5318 12.2344 27.4741 12.2344 27.4141V25.3909C12.234 25.0622 12.1316 24.7419 11.9412 24.474C11.7509 24.2061 11.482 24.004 11.1718 23.8955C10.8433 23.7796 10.5212 23.6465 10.2066 23.4968C9.91017 23.3532 9.57636 23.3056 9.25156 23.3604C8.92676 23.4152 8.62708 23.5698 8.39414 23.8027L6.96453 25.2323C6.92208 25.2745 6.86466 25.2981 6.8048 25.2981C6.74495 25.2981 6.68753 25.2745 6.64508 25.2323L3.76547 22.3504C3.72327 22.3079 3.69959 22.2505 3.69959 22.1907C3.69959 22.1308 3.72327 22.0734 3.76547 22.0309L5.19508 20.6013C5.42797 20.3684 5.58256 20.0687 5.63737 19.7439C5.69218 19.4191 5.64449 19.0853 5.50094 18.7888C5.35113 18.4736 5.21803 18.1507 5.10219 17.8214C4.99274 17.5128 4.79047 17.2457 4.52315 17.0567C4.25583 16.8676 3.93655 16.766 3.60914 16.7656H1.58594C1.52585 16.7656 1.46822 16.7418 1.42573 16.6993C1.38324 16.6568 1.35938 16.5991 1.35938 16.5391V12.4609C1.35938 12.4008 1.38324 12.3432 1.42573 12.3007C1.46822 12.2582 1.52585 12.2344 1.58594 12.2344H3.60914C3.93776 12.234 4.25814 12.1316 4.52601 11.9412C4.79388 11.7509 4.99601 11.482 5.10445 11.1718C5.22038 10.8433 5.35348 10.5212 5.5032 10.2066C5.64676 9.91017 5.69444 9.57636 5.63963 9.25156C5.58482 8.92676 5.43024 8.62708 5.19734 8.39414L3.76773 6.96453C3.72554 6.92208 3.70185 6.86466 3.70185 6.8048C3.70185 6.74495 3.72554 6.68753 3.76773 6.64508L6.64961 3.76547C6.69206 3.72327 6.74948 3.69959 6.80934 3.69959C6.86919 3.69959 6.92661 3.72327 6.96906 3.76547L8.39867 5.19508C8.63161 5.42797 8.93129 5.58256 9.25609 5.63737C9.5809 5.69218 9.91471 5.64449 10.2112 5.50094C10.5264 5.35113 10.8493 5.21803 11.1786 5.10219C11.4872 4.99274 11.7543 4.79047 11.9433 4.52315C12.1324 4.25583 12.234 3.93655 12.2344 3.60914V1.58594C12.2344 1.52585 12.2582 1.46822 12.3007 1.42573C12.3432 1.38324 12.4008 1.35938 12.4609 1.35938H16.5391C16.5991 1.35938 16.6568 1.38324 16.6993 1.42573C16.7418 1.46822 16.7656 1.52585 16.7656 1.58594V3.60914C16.766 3.93776 16.8684 4.25814 17.0588 4.52601C17.2491 4.79388 17.518 4.99601 17.8282 5.10445C18.1567 5.22038 18.4788 5.35348 18.7934 5.5032C19.0898 5.64676 19.4236 5.69444 19.7484 5.63963C20.0732 5.58482 20.3729 5.43024 20.6059 5.19734L22.0355 3.76773C22.0779 3.72554 22.1353 3.70185 22.1952 3.70185C22.255 3.70185 22.3125 3.72554 22.3549 3.76773L25.2391 6.65188C25.2813 6.69432 25.3049 6.75175 25.3049 6.8116C25.3049 6.87146 25.2813 6.92888 25.2391 6.97133L23.8095 8.40094C23.5766 8.63388 23.422 8.93355 23.3672 9.25836C23.3124 9.58316 23.36 9.91697 23.5036 10.2134C23.6534 10.5287 23.7865 10.8516 23.9023 11.1809C24.0112 11.4906 24.2135 11.759 24.4813 11.9489C24.7491 12.1389 25.0693 12.241 25.3977 12.2412H27.4141C27.4741 12.2412 27.5318 12.265 27.5743 12.3075C27.6168 12.35 27.6406 12.4076 27.6406 12.4677V16.5391Z" fill="#474B7C"/>
</g>
<defs>
<clipPath id="clip0_46_393">
<rect width="29" height="29" fill="white"/>
</clipPath>
</defs>
</svg>
