<svg width="15" height="15" viewBox="0 0 15 15" fill="none" xmlns="http://www.w3.org/2000/svg">
<path d="M7.84572 8.16907C5.0509 8.17434 2.7389 10.3871 2.59927 13.1834C2.59556 13.2627 2.60803 13.342 2.63593 13.4164C2.66382 13.4908 2.70657 13.5587 2.76155 13.616C2.81654 13.6734 2.88261 13.7189 2.95576 13.7499C3.02891 13.7809 3.1076 13.7967 3.18704 13.7963H12.5273C12.6063 13.7961 12.6845 13.7798 12.7571 13.7486C12.8297 13.7173 12.8953 13.6717 12.9498 13.6144C13.0043 13.5571 13.0466 13.4894 13.0742 13.4153C13.1018 13.3412 13.1142 13.2623 13.1105 13.1834C12.9707 10.3835 10.6532 8.16938 7.85487 8.16907H7.84572Z" fill="white"/>
<path d="M7.8551 2C6.37359 2 5.16578 3.2135 5.16577 4.69665C5.16577 6.1798 6.37359 7.39748 7.8551 7.39748C9.33662 7.39748 10.5486 6.1798 10.5486 4.69665C10.5486 3.2135 9.33661 2 7.8551 2Z" fill="white"/>
</svg>
